<?xml version="1.0" encoding="UTF-8" standalone="no"?>
<!-- Created with Inkscape (http://www.inkscape.org/) -->

<svg
   version="1.1"
   id="svg1"
   width="256"
   height="256"
   viewBox="-450 -480 900 900"
   sodipodi:docname="glasses.svg"
   inkscape:version="1.4.2 (ebf0e940d0, 2025-05-08)"
   xmlns:inkscape="http://www.inkscape.org/namespaces/inkscape"
   xmlns:sodipodi="http://sodipodi.sourceforge.net/DTD/sodipodi-0.dtd"
   xmlns="http://www.w3.org/2000/svg"
   xmlns:svg="http://www.w3.org/2000/svg">
  <defs
     id="defs1">
    <inkscape:path-effect
       effect="mirror_symmetry"
       start_point="495.09757,-5.5"
       end_point="495.09757,994.5"
       center_point="495.09757,494.5"
       id="path-effect2"
       is_visible="true"
       lpeversion="1.2"
       lpesatellites=""
       mode="vertical"
       discard_orig_path="false"
       fuse_paths="true"
       oposite_fuse="false"
       split_items="false"
       split_open="false"
       link_styles="false" />
  </defs>
  <sodipodi:namedview
     id="namedview1"
     pagecolor="#ffffff"
     bordercolor="#cccccc"
     borderopacity="1"
     inkscape:showpageshadow="0"
     inkscape:pageopacity="1"
     inkscape:pagecheckerboard="0"
     inkscape:deskcolor="#d1d1d1"
     inkscape:zoom="0.50498222"
     inkscape:cx="486.15573"
     inkscape:cy="560.41577"
     inkscape:window-width="1920"
     inkscape:window-height="1005"
     inkscape:window-x="0"
     inkscape:window-y="0"
     inkscape:window-maximized="1"
     inkscape:current-layer="svg1" />
  <rect
     style="fill:#78577f;fill-opacity:1;stroke:none;stroke-width:0.561"
     id="rect2"
     width="1132.7131"
     height="1142.6145"
     x="-563.36859"
     y="-563.36859" />
  <g
     inkscape:groupmode="layer"
     inkscape:label="Image"
     id="g1">
    <path
       d="m -120.59766,-185.74805 c -28.51927,0.97757 -35.33397,22.99158 -102.5,168.431644 V 7.3574219 c 0,0 16.40971,3.4641091 18.5625,27.1679691 1.63021,17.94984 5.39752,37.890023 30.24024,57.876953 23.6177,19.001336 96.693133,18.799106 114.609373,6.929687 C -3.7165069,62.252801 -32.093089,18.5 -2.0117188,18.5 H 0 2.0117188 c 30.0813702,0 1.7047881,43.752801 57.6738282,80.832031 17.91624,11.869419 90.991673,12.071649 114.609373,-6.929687 24.84272,-19.98693 28.61003,-39.927113 30.24024,-57.876953 2.15279,-23.70386 18.5625,-27.1679691 18.5625,-27.1679691 V -17.316406 c -67.16603,-145.440064 -73.98073,-167.454074 -102.5,-168.431644 -20.954754,-0.71827 -33.135599,10.02956 -37.265629,13.47461 -13.27038,11.06943 -4.685857,36.91189 16.251953,21.68946 27.343046,-19.87924 27.720776,-12.80544 84.611326,115.505855 -35.81745,-6.08339 -103.804838,-20.733093 -157.431638,15.841797 H 0 -26.763672 c -53.6268,-36.57489 -121.614188,-21.925187 -157.431638,-15.841797 56.89055,-128.311285 57.26828,-135.385095 84.611326,-115.505855 20.93781,15.22243 29.522333,-10.62003 16.251953,-21.68946 -4.13003,-3.44505 -16.310875,-14.19288 -37.265629,-13.47461 z m 10.57227,168.386722 c 63.687539,0.31034 70.711796,17.361256125 64.060546,53.910156 -6.17288,33.92031 -23.452987,46.207812 -64.060546,44.107422 -42.70249,-2.20875 -61.61198,-4.199211 -68.61328,-46.207031 -6.75573,-40.5344102 4.92574,-52.120897 68.61328,-51.810547 z m 220.05078,0 c 63.68754,-0.31035 75.36901,11.2761368 68.61328,51.810547 C 171.63737,76.457039 152.72788,78.4475 110.02539,80.65625 69.417831,82.75664 52.137724,70.469138 45.964844,36.548828 39.313594,-7.1875e-5 46.337851,-17.050988 110.02539,-17.361328 Z"
       style="display:inline;fill-opacity:1;stroke:none;stroke-width:0.561;fill:#ffffff"
       id="path2" />
  </g>
</svg>
