<?xml version="1.0" encoding="UTF-8" standalone="no"?>
<!-- Created with Inkscape (http://www.inkscape.org/) -->

<svg
   version="1.1"
   id="svg1"
   width="256"
   height="256"
   viewBox="-400 -400 800 800"
   sodipodi:docname="icon.svg"
   inkscape:version="1.4.2 (ebf0e940d0, 2025-05-08)"
   xmlns:inkscape="http://www.inkscape.org/namespaces/inkscape"
   xmlns:sodipodi="http://sodipodi.sourceforge.net/DTD/sodipodi-0.dtd"
   xmlns="http://www.w3.org/2000/svg"
   xmlns:svg="http://www.w3.org/2000/svg">
  <defs
     id="defs1">
    <inkscape:path-effect
       effect="mirror_symmetry"
       start_point="495.09757,-5.5"
       end_point="495.09757,994.5"
       center_point="495.09757,494.5"
       id="path-effect2"
       is_visible="true"
       lpeversion="1.2"
       lpesatellites=""
       mode="vertical"
       discard_orig_path="false"
       fuse_paths="true"
       oposite_fuse="false"
       split_items="false"
       split_open="false"
       link_styles="false" />
  </defs>
  <sodipodi:namedview
     id="namedview1"
     pagecolor="#ffffff"
     bordercolor="#cccccc"
     borderopacity="1"
     inkscape:showpageshadow="0"
     inkscape:pageopacity="1"
     inkscape:pagecheckerboard="0"
     inkscape:deskcolor="#d1d1d1"
     inkscape:zoom="0.50498222"
     inkscape:cx="486.15573"
     inkscape:cy="559.42564"
     inkscape:window-width="1920"
     inkscape:window-height="1005"
     inkscape:window-x="0"
     inkscape:window-y="0"
     inkscape:window-maximized="1"
     inkscape:current-layer="svg1" />
  <rect
     style="fill:#78577f;fill-opacity:1;stroke:none;stroke-width:0.561"
     id="rect2"
     width="1132.7131"
     height="1142.6145"
     x="-563.36859"
     y="-533.36902" />
  <g
     inkscape:groupmode="layer"
     inkscape:label="Image"
     id="g1">
    <path
       d="m -120.59766,-155.74846 c -28.51927,0.97757 -35.33397,22.99158 -102.5,168.431645 v 24.673828 c 0,0 16.40971,3.464109 18.5625,27.167969 1.63021,17.94984 5.39752,37.890028 30.24024,57.876958 23.6177,19.00133 96.693133,18.7991 114.609373,6.92968 C -3.7165069,92.252392 -32.093089,48.499591 -2.0117188,48.499591 H 0 2.0117188 c 30.0813702,0 1.7047881,43.752801 57.6738282,80.832029 17.91624,11.86942 90.991673,12.07165 114.609373,-6.92968 24.84272,-19.98693 28.61003,-39.927118 30.24024,-57.876958 2.15279,-23.70386 18.5625,-27.167969 18.5625,-27.167969 V 12.683185 c -67.16603,-145.440065 -73.98073,-167.454075 -102.5,-168.431645 -20.954754,-0.71827 -33.135599,10.02956 -37.265629,13.47461 -13.27038,11.06943 -4.685857,36.91189 16.251953,21.68946 27.343046,-19.87924 27.720776,-12.80544 84.611326,115.5058563 C 148.37786,-11.161924 80.390472,-25.811627 26.763672,10.763263 H 0 -26.763672 c -53.6268,-36.57489 -121.614188,-21.925187 -157.431638,-15.8417967 56.89055,-128.3112863 57.26828,-135.3850963 84.611326,-115.5058563 20.93781,15.22243 29.522333,-10.62003 16.251953,-21.68946 -4.13003,-3.44505 -16.310875,-14.19288 -37.265629,-13.47461 z m 10.57227,168.386723 c 63.687539,0.31034 70.711796,17.361256 64.060546,53.910156 -6.17288,33.920311 -23.452987,46.207811 -64.060546,44.107421 -42.70249,-2.20875 -61.61198,-4.19921 -68.61328,-46.20703 -6.75573,-40.53441 4.92574,-52.120897 68.61328,-51.810547 z m 220.05078,0 c 63.68754,-0.31035 75.36901,11.276137 68.61328,51.810547 -7.0013,42.00782 -25.91079,43.99828 -68.61328,46.20703 -40.607559,2.10039 -57.887666,-10.18711 -64.060546,-44.107421 -6.65125,-36.5489 0.373007,-53.599816 64.060546,-53.910156 z"
       style="display:inline;fill:#ffffff;fill-opacity:1;stroke:none;stroke-width:0.561"
       id="path2" />
  </g>
</svg>
